<?xml version="1.0" encoding="UTF-8"?>
<svg width="22px" height="22px" viewBox="0 0 22 22" version="1.1" xmlns="http://www.w3.org/2000/svg" xmlns:xlink="http://www.w3.org/1999/xlink">
    <!-- Generator: sketchtool 52.5 (67469) - http://www.bohemiancoding.com/sketch -->
    <title>A8FD0709-5AEF-4069-9205-66C685EE75BB</title>
    <desc>Created with sketchtool.</desc>
    <g id="Equivalency-Checker" stroke="none" stroke-width="1" fill="none" fill-rule="evenodd">
        <g id="Run-Error" transform="translate(-331.000000, -376.000000)">
            <g id="Icons/Error/Content" transform="translate(331.000000, 376.000000)">
                <path d="M0,11 C0,4.92486775 4.923532,0 11,0 L11,0 C17.0751322,0 22,4.923532 22,11 L22,11 C22,17.0751322 17.076468,22 11,22 L11,22 C4.92486775,22 0,17.076468 0,11 L0,11 Z" id="Rectangle-2" fill="#FFFFFF"></path>
                <path d="M10,11.97525 L10,6.53775 L12,6.53775 L12,11.97525 L10,11.97525 Z M10,15.50025 L10,13.42525 L12,13.42525 L12,15.50025 L10,15.50025 Z" id="!" fill="#FF4545"></path>
            </g>
        </g>
    </g>
</svg>