<?xml version="1.0" encoding="utf-8"?>
<!-- Generator: Adobe Illustrator 23.0.1, SVG Export Plug-In . SVG Version: 6.00 Build 0)  -->
<svg version="1.1" id="Capa_1" xmlns="http://www.w3.org/2000/svg" xmlns:xlink="http://www.w3.org/1999/xlink" x="0px" y="0px"
	 viewBox="0 0 58 58" style="enable-background:new 0 0 58 58;" xml:space="preserve">
<style type="text/css">
	.st0{fill:#2867FA;}
</style>
<g>
	<path class="st0" d="M33.7,46c-0.2-0.3-0.5-0.5-0.8-0.7s-0.6-0.2-0.9-0.2c-0.3,0-0.7,0.1-1,0.2s-0.6,0.3-0.8,0.6s-0.4,0.7-0.6,1.2
		c-0.1,0.5-0.2,1.1-0.2,1.8s0.1,1.3,0.2,1.8s0.3,0.9,0.5,1.2s0.5,0.5,0.8,0.7s0.6,0.2,0.9,0.2s0.7-0.1,1-0.2s0.6-0.3,0.8-0.6
		s0.4-0.7,0.6-1.2s0.2-1.1,0.2-1.8s-0.1-1.3-0.2-1.7S33.9,46.3,33.7,46z"/>
	<path class="st0" d="M51.5,39V14c0-0.8-0.1-1.3-0.5-1.8L39.3,0.6C39,0.2,38.5,0,38,0H9C7.8,0,6.5,0.9,6.5,2.9V39H51.5z M29.5,33
		c0,0.6-0.4,1-1,1s-1-0.4-1-1v-3c0-0.6,0.4-1,1-1s1,0.4,1,1V33z M37.5,3.4c0-0.5,0.6-0.7,0.9-0.4l10.1,10.1c0.3,0.3,0.1,0.9-0.4,0.9
		H37.5V3.4z M36.5,24v-4c0-0.6-0.4-1-1-1s-1-0.4-1-1s0.4-1,1-1c1.7,0,3,1.3,3,3v4c0,1.1,0.9,2,2,2c0.6,0,1,0.4,1,1s-0.4,1-1,1
		c-1.1,0-2,0.9-2,2v4c0,1.7-1.3,3-3,3c-0.6,0-1-0.4-1-1s0.4-1,1-1s1-0.4,1-1v-4c0-1.2,0.5-2.3,1.4-3C37,26.3,36.5,25.2,36.5,24z
		 M28.5,22c0.8,0,1.5,0.7,1.5,1.5S29.3,25,28.5,25S27,24.3,27,23.5S27.7,22,28.5,22z M16.5,26c1.1,0,2-0.9,2-2v-4c0-1.7,1.3-3,3-3
		c0.6,0,1,0.4,1,1s-0.4,1-1,1s-1,0.4-1,1v4c0,1.2-0.5,2.3-1.4,3c0.8,0.7,1.4,1.8,1.4,3v4c0,0.6,0.4,1,1,1s1,0.4,1,1s-0.4,1-1,1
		c-1.7,0-3-1.3-3-3v-4c0-1.1-0.9-2-2-2c-0.6,0-1-0.4-1-1S15.9,26,16.5,26z"/>
	<path class="st0" d="M6.5,41v15c0,1,1.2,2,2.5,2h40c1.2,0,2.5-1,2.5-2V41H6.5z M18,51.6c0,0.5-0.1,0.9-0.3,1.2s-0.4,0.6-0.7,0.8
		s-0.6,0.3-1,0.4c-0.4,0.1-0.8,0.1-1.2,0.1c-0.2,0-0.4,0-0.7-0.1s-0.5-0.1-0.8-0.2s-0.6-0.2-0.8-0.3s-0.5-0.2-0.7-0.4l0.7-1.1
		c0.1,0.1,0.2,0.1,0.4,0.2s0.4,0.1,0.6,0.2s0.4,0.1,0.6,0.2s0.4,0.1,0.6,0.1c0.5,0,0.9-0.1,1.2-0.3s0.4-0.5,0.5-1v-7.7H18V51.6z
		 M26,52.3c-0.1,0.3-0.4,0.6-0.6,0.9s-0.6,0.5-1,0.6S23.5,54,23,54c-0.2,0-0.4,0-0.7,0s-0.5-0.1-0.7-0.1c-0.2-0.1-0.5-0.1-0.7-0.2
		s-0.4-0.2-0.6-0.3l0.3-1.2c0.1,0.1,0.3,0.1,0.5,0.2s0.4,0.1,0.6,0.2s0.4,0.1,0.6,0.1s0.4,0.1,0.6,0.1c0.6,0,1-0.1,1.3-0.4
		s0.4-0.6,0.4-1.2c0-0.3-0.1-0.6-0.3-0.8s-0.5-0.4-0.8-0.6s-0.7-0.4-1-0.5s-0.7-0.4-1-0.6s-0.6-0.5-0.8-0.9s-0.3-0.7-0.3-1.2
		c0-0.4,0.1-0.8,0.2-1.2s0.4-0.6,0.7-0.9s0.6-0.4,1-0.6s0.8-0.2,1.2-0.2c0.4,0,0.8,0,1.3,0.1s0.8,0.2,1,0.4
		c-0.1,0.1-0.1,0.2-0.2,0.4s-0.1,0.3-0.2,0.4s-0.1,0.2-0.2,0.3s-0.1,0.1-0.1,0.1c-0.1,0-0.1-0.1-0.2-0.1s-0.2-0.1-0.3-0.1
		s-0.3-0.1-0.5-0.1s-0.5,0-0.8,0c-0.2,0-0.4,0.1-0.5,0.2s-0.3,0.2-0.4,0.3s-0.2,0.3-0.3,0.4S22,46.4,22,46.5c0,0.4,0.1,0.7,0.3,0.9
		s0.5,0.4,0.8,0.6s0.6,0.3,1,0.5s0.7,0.4,1,0.6s0.6,0.5,0.8,0.9s0.3,0.8,0.3,1.3C26.2,51.6,26.1,52,26,52.3z M35.8,51.2
		c-0.2,0.6-0.5,1.2-0.9,1.6s-0.8,0.8-1.3,1s-1.1,0.3-1.7,0.3s-1.2-0.1-1.7-0.3s-0.9-0.5-1.3-1s-0.7-1-0.9-1.6s-0.3-1.4-0.3-2.2
		s0.1-1.6,0.3-2.2s0.5-1.2,0.9-1.6s0.8-0.8,1.3-1s1.1-0.3,1.7-0.3c0.6,0,1.2,0.1,1.7,0.3s0.9,0.5,1.3,1s0.7,1,0.9,1.6
		s0.3,1.4,0.3,2.2S36,50.5,35.8,51.2z M45.7,54H44l-4-6.9V54h-1.7V43.9H40l4,6.9v-6.9h1.7V54z"/>
</g>
</svg>
