<?xml version="1.0" encoding="utf-8"?>
<!-- Generator: Adobe Illustrator 23.0.1, SVG Export Plug-In . SVG Version: 6.00 Build 0)  -->
<svg version="1.1" id="Capa_1" xmlns="http://www.w3.org/2000/svg" xmlns:xlink="http://www.w3.org/1999/xlink" x="0px" y="0px"
	 viewBox="0 0 58 58" style="enable-background:new 0 0 58 58;" xml:space="preserve">
<style type="text/css">
	.st0{fill:#2867FA;}
	.st1{fill:#FFFFFF;}
</style>
<g>
	<path class="st0" d="M6.5,41v15c0,1,1.2,2,2.5,2h40c1.2,0,2.5-1,2.5-2V41H6.5z"/>
	<path class="st0" d="M51.5,39V14c0-0.8-0.1-1.3-0.5-1.8L39.3,0.6C39,0.2,38.5,0,38,0H9C7.8,0,6.5,0.9,6.5,2.9V39H51.5z M29.5,33
		c0,0.6-0.4,1-1,1s-1-0.4-1-1v-3c0-0.6,0.4-1,1-1s1,0.4,1,1V33z M37.5,3.4c0-0.5,0.6-0.7,0.9-0.4l10.1,10.1c0.3,0.3,0.1,0.9-0.4,0.9
		H37.5V3.4z M36.5,24v-4c0-0.6-0.4-1-1-1s-1-0.4-1-1s0.4-1,1-1c1.7,0,3,1.3,3,3v4c0,1.1,0.9,2,2,2c0.6,0,1,0.4,1,1s-0.4,1-1,1
		c-1.1,0-2,0.9-2,2v4c0,1.7-1.3,3-3,3c-0.6,0-1-0.4-1-1s0.4-1,1-1s1-0.4,1-1v-4c0-1.2,0.5-2.3,1.4-3C37,26.3,36.5,25.2,36.5,24z
		 M28.5,22c0.8,0,1.5,0.7,1.5,1.5S29.3,25,28.5,25S27,24.3,27,23.5S27.7,22,28.5,22z M16.5,26c1.1,0,2-0.9,2-2v-4c0-1.7,1.3-3,3-3
		c0.6,0,1,0.4,1,1s-0.4,1-1,1s-1,0.4-1,1v4c0,1.2-0.5,2.3-1.4,3c0.8,0.7,1.4,1.8,1.4,3v4c0,0.6,0.4,1,1,1s1,0.4,1,1s-0.4,1-1,1
		c-1.7,0-3-1.3-3-3v-4c0-1.1-0.9-2-2-2c-0.6,0-1-0.4-1-1S15.9,26,16.5,26z"/>
</g>
<g>
	<g>
		<path class="st1" d="M10.5,53c0.1-0.6,0.8-1.3,2.3-1.9c0.6-1.3,1.1-2.8,1.4-4.1c-0.4-0.8-0.8-1.9-0.5-2.5c0.1-0.2,0.2-0.4,0.4-0.5
			c0.1,0,0.3-0.1,0.4-0.1c0.2,0,0.4,0.2,0.5,0.4c0.1,0.1,0.4,0.4-0.1,2.6c0.5,1.1,1.2,2.1,1.9,2.9c0.5-0.1,0.9-0.1,1.3-0.1
			c0.6,0,1,0.1,1.1,0.4c0.1,0.2,0.1,0.5-0.1,0.8s-0.5,0.5-0.8,0.5c-0.5,0-1-0.3-1.6-0.9c-1.1,0.2-2.3,0.6-3.4,1.1
			c-0.3,0.7-0.6,1.2-0.9,1.6C12,53.7,11.6,54,11.3,54l0,0c-0.1,0-0.3,0-0.4-0.1C10.5,53.6,10.5,53.2,10.5,53z"/>
		<path class="st0" d="M18.6,50.5c0.1-0.1,0.1-0.1,0.1-0.2c0,0-0.1-0.1-0.4-0.1c-0.2,0-0.4,0-0.7,0c0.3,0.2,0.4,0.4,0.6,0.4
			C18.2,50.7,18.4,50.7,18.6,50.5z"/>
		<path class="st0" d="M11.3,53.4c0.1,0,0.4-0.2,1-1.3c-0.8,0.5-1.1,0.8-1.2,1C11.1,53.1,11.1,53.2,11.3,53.4z"/>
		<path class="st0" d="M14.7,47.8c-0.3,0.9-0.6,2-1,2.9c0.8-0.3,1.7-0.6,2.5-0.8C15.6,49.4,15.1,48.6,14.7,47.8z"/>
		<path class="st0" d="M14.4,44.6c0,0-0.5,0.7,0,1.2C14.8,45,14.5,44.6,14.4,44.6z"/>
	</g>
	<g>
		<path class="st1" d="M27.4,48.4c-0.2,0.4-0.4,0.8-0.7,1S26,50,25.6,50.1s-0.9,0.2-1.4,0.2H23V54h-1.6V43.9h2.9
			c0.4,0,0.9,0.1,1.3,0.2s0.8,0.3,1.1,0.6c0.3,0.3,0.6,0.6,0.8,1s0.3,0.8,0.3,1.3C27.7,47.6,27.6,48,27.4,48.4z"/>
		<path class="st1" d="M37.5,50.8c-0.2,0.6-0.4,1.1-0.7,1.5s-0.6,0.7-0.9,0.9c-0.3,0.2-0.7,0.4-1,0.5s-0.6,0.2-0.9,0.2
			c-0.3,0-0.5,0-0.6,0h-3.8v-10h3c0.8,0,1.6,0.1,2.2,0.4c0.6,0.3,1.2,0.6,1.6,1.1s0.7,1,1,1.5c0.2,0.6,0.3,1.2,0.3,1.8
			C37.7,49.5,37.7,50.2,37.5,50.8z"/>
		<polygon class="st1" points="46.4,45.2 41.8,45.2 41.8,48.3 46,48.3 46,49.5 41.8,49.5 41.8,54 40.1,54 40.1,43.9 46.4,43.9 		"/>
		<path class="st0" d="M25.8,45.9c-0.1-0.2-0.3-0.4-0.6-0.5s-0.6-0.2-1-0.2H23v4h1.5c0.2,0,0.4,0,0.6-0.1s0.4-0.2,0.5-0.3
			c0.2-0.2,0.3-0.4,0.4-0.6s0.1-0.6,0.1-1c0-0.2,0-0.4-0.1-0.6C26,46.3,25.9,46.1,25.8,45.9z"/>
		<path class="st0" d="M35.3,46.3c-0.3-0.3-0.7-0.6-1.2-0.8s-1.1-0.3-1.9-0.3h-1v7.6h1.6c1.1,0,1.9-0.4,2.4-1.1S36,50,36,48.6
			c0-0.4,0-0.8-0.2-1.2C35.8,47,35.6,46.6,35.3,46.3z"/>
	</g>
</g>
<path class="st1" d="M13.2,11.3c0,0.5-0.1,0.9-0.2,1.3c-0.1,0.3-0.3,0.6-0.6,0.8s-0.5,0.4-0.8,0.4C11.3,14,11,14,10.7,14
	c-0.2,0-0.3,0-0.6-0.1s-0.4-0.1-0.7-0.2S9,13.5,8.8,13.4S8.4,13.2,8.3,13l0.6-1.2C8.9,11.9,9,12,9.1,12c0.1,0.1,0.3,0.1,0.4,0.2
	c0.2,0.1,0.3,0.1,0.5,0.2s0.3,0.1,0.5,0.1c0.4,0,0.7-0.1,0.9-0.3s0.4-0.5,0.4-1V2.9h1.3v8.4H13.2z"/>
<path class="st1" d="M19.6,12.1c-0.1,0.4-0.3,0.7-0.5,1s-0.5,0.5-0.8,0.7S17.6,14,17.2,14c-0.2,0-0.4,0-0.5,0
	c-0.2,0-0.4-0.1-0.6-0.1c-0.2-0.1-0.4-0.1-0.5-0.2c-0.2-0.1-0.3-0.2-0.4-0.4l0.2-1.3c0.1,0.1,0.2,0.2,0.4,0.2
	c0.2,0.1,0.3,0.1,0.5,0.2c0.2,0.1,0.3,0.1,0.5,0.2c0.2,0,0.3,0.1,0.5,0.1c0.4,0,0.8-0.1,1-0.4c0.2-0.3,0.4-0.7,0.4-1.2
	c0-0.3-0.1-0.6-0.3-0.9C18.2,10,18,9.8,17.8,9.6S17.3,9.2,17,9s-0.8-0.6-1-0.8c-0.3-0.3-0.5-0.6-0.6-0.9S15.1,6.5,15.1,6
	s0.1-0.9,0.2-1.3c0.1-0.4,0.3-0.7,0.5-0.9s0.5-0.5,0.8-0.6S17.2,3,17.5,3s0.7,0,1,0.1s0.6,0.2,0.8,0.4c0,0.1-0.1,0.3-0.2,0.4
	C19,4.1,19,4.2,18.9,4.3S19,4.5,19,4.6s-0.1,0.1-0.1,0.1l-0.1-0.1c-0.1,0-0.1-0.1-0.2-0.1s-0.2-0.1-0.4-0.1c-0.2,0-0.4,0-0.6,0
	c-0.1,0-0.3,0.1-0.4,0.2S17,4.8,16.8,4.9c-0.1,0.1-0.2,0.3-0.2,0.5s-0.1,0.3-0.1,0.5c0,0.4,0.1,0.7,0.3,0.9C17,7,17.2,7.3,17.4,7.4
	C17.5,7.7,17.7,7.8,18,8s0.6,0.4,0.8,0.6s0.5,0.6,0.6,0.9c0.2,0.4,0.3,0.8,0.3,1.4C19.7,11.4,19.7,11.7,19.6,12.1z"/>
<path class="st1" d="M27.4,10.9c-0.2,0.7-0.4,1.3-0.7,1.7c-0.3,0.5-0.7,0.8-1.1,1S24.7,14,24.3,14c-0.5,0-0.9-0.1-1.3-0.4
	s-0.8-0.6-1.1-1c-0.3-0.5-0.5-1-0.7-1.7s-0.3-1.5-0.3-2.4s0.1-1.7,0.3-2.4c0.2-0.7,0.4-1.3,0.7-1.7c0.3-0.5,0.7-0.8,1.1-1.1
	c0.4-0.2,0.9-0.4,1.3-0.4s0.9,0.1,1.3,0.4c0.4,0.2,0.8,0.6,1.1,1.1c0.3,0.5,0.5,1,0.7,1.7s0.3,1.5,0.3,2.4S27.6,10.2,27.4,10.9z"/>
<polygon class="st1" points="35.4,13.9 34,13.9 30.9,6.5 30.9,13.9 29.5,13.9 29.5,3.1 30.9,3.1 34,10.6 34,3.1 35.4,3.1 "/>
<path class="st0" d="M25.7,5.3c-0.2-0.3-0.4-0.6-0.6-0.7s-0.5-0.2-0.8-0.2s-0.5,0.1-0.8,0.2C23.3,4.7,23,5,22.8,5.3
	c-0.2,0.3-0.3,0.8-0.5,1.3c-0.1,0.5-0.2,1.2-0.2,1.9s0.1,1.4,0.2,1.9s0.3,0.9,0.4,1.3s0.4,0.6,0.6,0.7s0.5,0.2,0.8,0.2
	s0.5-0.1,0.8-0.2c0.2-0.1,0.5-0.4,0.7-0.7s0.3-0.7,0.5-1.3s0.2-1.2,0.2-1.9s-0.1-1.4-0.2-1.9C26.1,6,25.9,5.6,25.7,5.3z"/>
</svg>
