<?xml version="1.0" encoding="utf-8"?>
<!-- Generator: Adobe Illustrator 23.0.1, SVG Export Plug-In . SVG Version: 6.00 Build 0)  -->
<svg version="1.1" id="Capa_1" xmlns="http://www.w3.org/2000/svg" xmlns:xlink="http://www.w3.org/1999/xlink" x="0px" y="0px"
	 viewBox="0 0 58 58" style="enable-background:new 0 0 58 58;" xml:space="preserve">
<style type="text/css">
	.st0{fill:#FFFFFF;}
	.st1{fill:#2867FA;}
	.st2{fill:#D6053C;}
</style>
<g>
	<g>
		<rect x="21" y="0.5" class="st0" width="36.2" height="50.1"/>
		<path class="st1" d="M57.2,51H21c-0.2,0-0.3-0.2-0.3-0.4V0.5c0-0.2,0.2-0.4,0.3-0.4h36.2c0.2,0,0.3,0.2,0.3,0.4v50.1
			C57.5,50.8,57.4,51,57.2,51z M21.4,50.2h35.5V0.9H21.4V50.2z"/>
	</g>
	<g>
		<polygon class="st0" points="53.5,56.5 16.1,56.5 16.1,5 43.8,5 47.9,10.7 53.5,15.8 		"/>
	</g>
	<g>
		<g>
			<g>
				<path class="st1" d="M53.8,57.3H15.7c-0.2,0-0.3-0.2-0.3-0.4V4.7c0-0.2,0.2-0.4,0.3-0.4h27.2c0.2,0,0.3,0.2,0.3,0.4v11.7h10.6
					c0.2,0,0.3,0.2,0.3,0.4v40.1C54.2,57.1,54,57.3,53.8,57.3z M16.1,56.5h37.4V17.2H42.9c-0.2,0-0.3-0.2-0.3-0.4V5H16.1V56.5z"/>
			</g>
		</g>
		<g>
			<g>
				<polygon class="st1" points="53.6,17 42.7,4.9 43.2,4.4 54.1,16.5 				"/>
			</g>
		</g>
	</g>
	<g>
		<g>
			<rect x="0.9" y="7.8" class="st1" width="24.9" height="13.5"/>
		</g>
		<g>
			<rect x="1.5" y="8.4" class="st0" width="23.7" height="12.3"/>
		</g>
		<g>
			<rect x="2.4" y="9.2" class="st2" width="22" height="10.7"/>
		</g>
		<g>
			<path class="st0" d="M6.4,11.6h0.8v5.2h2.6v0.6H6.4V11.6z"/>
			<path class="st0" d="M15.3,14.5c0,2-1.3,3.1-2.8,3.1c-1.6,0-2.7-1.2-2.7-3c0-1.9,1.2-3.1,2.8-3.1C14.3,11.5,15.3,12.7,15.3,14.5z
				 M10.7,14.6c0,1.3,0.7,2.4,1.9,2.4c1.2,0,1.9-1.1,1.9-2.4c0-1.2-0.6-2.4-1.9-2.4C11.3,12.1,10.7,13.3,10.7,14.6z"/>
			<path class="st0" d="M20.9,17.2c-0.3,0.1-1,0.3-1.8,0.3c-0.9,0-1.7-0.2-2.2-0.8c-0.5-0.5-0.8-1.3-0.8-2.2c0-1.7,1.2-3,3.2-3
				c0.7,0,1.2,0.1,1.5,0.3l-0.2,0.6c-0.3-0.1-0.7-0.3-1.3-0.3c-1.5,0-2.4,0.9-2.4,2.4c0,1.5,0.9,2.4,2.3,2.4c0.5,0,0.9-0.1,1-0.2V15
				h-1.2v-0.6h2V17.2z"/>
		</g>
	</g>
	<g>
		<rect x="34.5" y="28.2" class="st1" width="13.6" height="0.6"/>
	</g>
	<g>
		<rect x="26.2" y="29.6" class="st1" width="2.8" height="0.6"/>
	</g>
	<g>
		<rect x="26.2" y="32.3" class="st1" width="2.8" height="0.6"/>
	</g>
	<g>
		<rect x="34.5" y="33.1" class="st1" width="13.6" height="0.6"/>
	</g>
	<g>
		<rect x="22.2" y="38" class="st1" width="25.9" height="0.6"/>
	</g>
	<g>
		<rect x="22.2" y="42.9" class="st1" width="25.9" height="0.6"/>
	</g>
	<g>
		<rect x="22.2" y="47.8" class="st1" width="25.9" height="0.6"/>
	</g>
	<g>
		<polygon class="st1" points="24.5,34.4 22.2,31.3 24.5,27.8 25,28.4 23,31.3 25,33.9 		"/>
	</g>
	<g>
		<polygon class="st1" points="30.5,27.8 32.8,30.9 30.5,34.4 30,33.8 32,30.9 30,28.3 		"/>
	</g>
</g>
</svg>
