<?xml version="1.0" encoding="utf-8"?>
<!-- Generator: Adobe Illustrator 23.0.1, SVG Export Plug-In . SVG Version: 6.00 Build 0)  -->
<svg version="1.1" id="Layer_1" xmlns="http://www.w3.org/2000/svg" xmlns:xlink="http://www.w3.org/1999/xlink" x="0px" y="0px"
	 viewBox="0 0 448 448" style="enable-background:new 0 0 448 448;" xml:space="preserve">
<style type="text/css">
	.st0{fill:#2867FA;}
</style>
<path class="st0" d="M304,72V0H72C58.7,0,48,10.7,48,24v400c0,13.3,10.7,24,24,24h304c13.3,0,24-10.7,24-24V96h-72
	C314.7,96,304,85.3,304,72z M72,96c-4.4,0-8-3.6-8-8V40c0-13.3,10.7-24,24-24h48c4.4,0,8,3.6,8,8s-3.6,8-8,8H88c-4.4,0-8,3.6-8,8v48
	C80,92.4,76.4,96,72,96z M224,416c-79.5,0-144-64.5-144-144s64.5-144,144-144s144,64.5,144,144C367.9,351.5,303.5,415.9,224,416z"/>
<path class="st0" d="M224,144c-70.7,0-128,57.3-128,128s57.3,128,128,128s128-57.3,128-128C351.9,201.3,294.7,144.1,224,144z
	 M152,272v32c0,4.4-3.6,8-8,8s-8-3.6-8-8v-32c0-39.7,32.3-72,72-72h28.7l-9-9c-3-3.1-3-8.1,0.1-11.2s8.1-3.1,11.2-0.1l22.6,22.6
	c0.7,0.7,1.3,1.6,1.7,2.6c0.8,2,0.8,4.2,0,6.2c-0.4,1-1,1.8-1.7,2.6L239,236.3c-2,2.1-5,2.9-7.8,2.2c-2.8-0.7-5-2.9-5.7-5.7
	c-0.7-2.8,0.1-5.8,2.2-7.8l9-9H208C177.1,216,152,241.1,152,272z M312,272c0,39.7-32.3,72-72,72h-28.7l9,9c2.1,2,2.9,5,2.2,7.8
	c-0.7,2.8-2.9,5-5.7,5.7c-2.8,0.7-5.8-0.1-7.8-2.2l-22.6-22.6c-0.7-0.7-1.3-1.6-1.7-2.6c-0.8-2-0.8-4.2,0-6.2c0.4-1,1-1.8,1.7-2.6
	l22.6-22.6c2-2.1,5-2.9,7.8-2.2c2.8,0.7,5,2.9,5.7,5.7c0.7,2.8-0.1,5.8-2.2,7.8l-9,9H240c30.9,0,56-25.1,56-56v-32c0-4.4,3.6-8,8-8
	s8,3.6,8,8V272z"/>
<path class="st0" d="M328,80h60.7L320,11.3V72C320,76.4,323.6,80,328,80z"/>
</svg>
